<?xml version="1.0" encoding="UTF-8"?>
<!-- Generator: visioncortex VTracer 0.6.3 -->
<svg version="1.1" xmlns="http://www.w3.org/2000/svg" width="1280" height="1280">
<path d="M0 0 C422.4 0 844.8 0 1280 0 C1280 422.4 1280 844.8 1280 1280 C857.6 1280 435.2 1280 0 1280 C0 857.6 0 435.2 0 0 Z " fill="#FBFDFD" transform="translate(0,0)"/>
<path d="M0 0 C0.79 -0 1.58 -0 2.39 -0 C5.01 0 7.63 0.01 10.25 0.02 C12.06 0.02 13.88 0.02 15.69 0.02 C20.47 0.02 25.25 0.03 30.02 0.04 C34.9 0.06 39.77 0.06 44.64 0.06 C54.21 0.08 63.77 0.09 73.34 0.11 C74.63 2.68 75.92 5.24 77.2 7.81 C77.57 8.53 77.93 9.25 78.31 10 C80.76 14.9 83.03 19.82 85.02 24.93 C85.6 26.36 86.17 27.78 86.75 29.21 C87.15 30.21 87.15 30.21 87.56 31.24 C88.63 33.81 89.79 36.34 90.96 38.86 C92.77 42.75 94.33 46.67 95.84 50.68 C97.32 54.61 98.9 58.38 100.84 62.11 C103.31 66.88 105.2 71.78 107.08 76.8 C109.56 83.33 112.11 89.85 115.34 96.05 C117.62 100.47 119.3 105.1 121.05 109.75 C123.7 116.69 126.6 123.52 129.69 130.28 C132.27 135.95 134.79 141.65 137.27 147.36 C137.71 148.36 138.15 149.36 138.59 150.39 C141.49 157.07 144.26 163.78 146.89 170.57 C148.09 173.51 149.36 176.38 150.68 179.27 C153.42 185.25 155.98 191.3 158.52 197.36 C162.17 206.04 165.88 214.68 169.65 223.3 C172.88 230.67 175.99 238.06 178.89 245.57 C180.49 249.49 182.23 253.32 184 257.17 C186.21 262.02 188.33 266.91 190.46 271.8 C190.89 272.78 191.32 273.76 191.76 274.77 C193.61 279.01 195.42 283.24 197.02 287.57 C198 290.22 199.01 292.63 200.34 295.11 C201.67 297.7 202.8 300.25 203.77 302.99 C204.88 306.06 206.21 308.9 207.71 311.8 C210.74 317.72 213.01 323.89 215.34 330.11 C217.67 336.17 220.21 342.1 222.92 348 C226.83 356.57 230.65 365.17 233.96 373.99 C235.69 378.59 237.69 382.89 239.95 387.25 C242.1 391.7 243.92 396.28 245.75 400.87 C247.47 405.15 249.36 409.28 251.49 413.38 C252.71 415.87 253.49 418.47 254.34 421.11 C258.54 432.09 263.23 442.89 267.87 453.68 C269.19 456.78 270.49 459.88 271.77 462.99 C274.01 468.38 276.34 473.72 278.68 479.06 C283.33 489.64 287.83 500.28 292.3 510.93 C294.77 516.8 297.32 522.64 299.9 528.46 C301.71 532.6 303.38 536.76 304.96 540.99 C306.4 544.81 307.94 548.43 309.84 552.05 C312.47 557.13 314.29 562.4 316.16 567.8 C318.03 573.06 320.36 578.05 322.74 583.09 C326.99 592.16 330.76 601.32 333.91 610.82 C334.18 611.62 334.45 612.43 334.72 613.26 C334.93 613.87 335.13 614.48 335.34 615.11 C324.44 615.21 313.54 615.28 302.64 615.32 C297.57 615.34 292.51 615.37 287.45 615.42 C282.57 615.46 277.69 615.48 272.81 615.49 C270.94 615.5 269.08 615.51 267.21 615.54 C264.6 615.57 262 615.57 259.39 615.57 C258.61 615.58 257.84 615.6 257.04 615.61 C251.8 615.57 251.8 615.57 249.41 613.22 C249.05 612.53 248.7 611.83 248.34 611.11 C247.95 610.38 247.56 609.64 247.16 608.88 C244.31 602.58 241.8 596.2 239.48 589.68 C238.1 585.87 236.45 582.57 234.34 579.11 C233.53 577.13 232.76 575.13 232.02 573.11 C229.87 567.37 227.42 561.85 224.81 556.3 C222.94 552.25 221.25 548.14 219.55 544.01 C218.37 541.2 217.12 538.44 215.84 535.68 C214.09 531.89 212.53 528.07 211.07 524.16 C208.3 516.93 205.25 509.83 202.15 502.74 C201.58 501.43 201.01 500.12 200.44 498.81 C199.29 496.17 198.14 493.54 196.99 490.9 C195.45 487.38 193.93 483.86 192.41 480.33 C191.96 479.3 191.51 478.26 191.05 477.2 C190.23 475.29 189.41 473.38 188.58 471.47 C186.9 467.58 185.18 463.74 183.24 459.97 C181.32 456.18 179.82 452.3 178.4 448.3 C176.41 442.73 174.13 437.36 171.66 431.98 C169.49 427.26 167.41 422.5 165.34 417.74 C164.68 416.23 164.68 416.23 164.01 414.69 C161.32 408.49 158.83 402.27 156.48 395.95 C154.84 391.88 152.82 388.05 150.81 384.16 C148.8 380.01 147.19 375.74 145.61 371.41 C144.34 368.11 142.93 364.91 141.48 361.68 C139.24 356.65 137.11 351.56 134.96 346.49 C134.48 345.34 133.99 344.19 133.49 343.01 C130.91 336.9 128.38 330.78 125.96 324.61 C124.1 319.88 122.01 315.39 119.68 310.88 C116.91 305.17 114.63 299.25 112.25 293.38 C110.75 289.66 109.23 285.95 107.71 282.24 C107.42 281.52 107.13 280.81 106.82 280.07 C104.86 275.3 102.76 270.61 100.59 265.93 C98.76 261.82 97.14 257.64 95.5 253.45 C93.98 249.62 92.31 245.95 90.39 242.3 C89.13 239.67 88.12 237 87.1 234.27 C84.33 227 81.27 219.87 78.15 212.74 C77.58 211.43 77.01 210.12 76.44 208.81 C75.29 206.17 74.14 203.54 72.99 200.9 C71.45 197.38 69.93 193.86 68.41 190.33 C67.96 189.3 67.51 188.26 67.05 187.2 C66.23 185.29 65.41 183.38 64.58 181.47 C62.88 177.54 61.14 173.67 59.19 169.86 C57.57 166.68 56.41 163.52 55.34 160.11 C54.38 157.58 53.4 155.06 52.4 152.55 C52.15 151.9 51.9 151.26 51.64 150.59 C50.15 146.86 48.4 143.54 46.34 140.11 C45.5 138.09 44.72 136.04 43.96 133.99 C42.39 129.79 40.73 125.68 38.84 121.61 C37.01 117.69 35.41 113.73 33.9 109.68 C31.87 104.29 29.45 99.26 26.81 94.16 C24.76 89.92 23.13 85.56 21.49 81.15 C19.94 77.06 18.16 73.09 16.34 69.11 C11.24 57.94 6.68 46.53 2.15 35.11 C-0.48 28.52 -3.32 22.05 -6.28 15.6 C-6.84 14.33 -7.41 13.07 -7.98 11.8 C-8.51 10.63 -9.04 9.46 -9.59 8.25 C-10.63 5.21 -11.04 3.98 -9.66 1.11 C-6.59 -0.42 -3.37 -0.02 0 0 Z " fill="#030606" transform="translate(604.66259765625,330.886474609375)"/>
<path d="M0 0 C0.8 -0 1.6 -0 2.42 -0 C5.08 0 7.73 0.01 10.38 0.02 C12.21 0.02 14.05 0.02 15.89 0.02 C20.72 0.02 25.56 0.03 30.4 0.04 C35.33 0.06 40.26 0.06 45.19 0.06 C54.88 0.08 64.56 0.09 74.25 0.11 C75.53 2.8 76.8 5.49 78.08 8.18 C78.44 8.93 78.8 9.69 79.17 10.46 C81.77 15.96 83.99 21.5 86.1 27.2 C87.51 30.78 89.23 34.12 91 37.53 C92.41 40.46 93.55 43.44 94.68 46.49 C96.29 50.79 98.06 54.85 100.18 58.93 C102.89 64.18 105.01 69.51 106.98 75.07 C108.72 79.93 110.78 84.59 112.95 89.28 C115 93.76 116.97 98.28 118.93 102.8 C119.36 103.78 119.79 104.76 120.23 105.77 C125.72 118.46 131.02 131.22 136.25 144.02 C139.08 150.92 141.95 157.77 145.08 164.54 C146.74 168.2 148.26 171.9 149.8 175.61 C151.59 179.95 153.42 184.28 155.25 188.61 C158.68 196.77 162.11 204.93 165.48 213.12 C167.86 218.87 170.33 224.55 172.93 230.2 C176.79 238.74 180.37 247.4 183.96 256.05 C187.09 263.52 190.26 270.97 193.62 278.34 C196.22 284.03 198.75 289.75 201.25 295.49 C201.9 296.99 201.9 296.99 202.57 298.53 C205.24 304.7 207.8 310.88 210.11 317.2 C211.68 321.24 213.47 325.17 215.25 329.11 C215.91 330.61 216.58 332.11 217.25 333.61 C217.58 334.36 217.91 335.1 218.25 335.86 C221.25 342.61 221.25 342.61 222.24 344.85 C222.92 346.39 223.61 347.92 224.3 349.45 C226.25 353.8 228.08 358.15 229.75 362.61 C232.37 369.5 235.21 376.14 238.62 382.68 C241.18 387.71 243.08 392.92 245.01 398.22 C246.72 402.87 248.72 407.23 251.03 411.62 C252.99 415.64 254.49 419.83 256.06 424.02 C257.97 429 260.18 433.82 262.43 438.65 C265.23 444.7 267.7 450.81 270.06 457.04 C271.35 460.37 272.74 463.63 274.22 466.87 C277.48 474.01 280.6 481.21 283.68 488.43 C284.08 489.35 284.47 490.27 284.88 491.22 C286.96 496.07 289 500.92 291 505.8 C292.42 509.25 293.96 512.56 295.68 515.86 C298.23 520.82 300.11 525.94 302.02 531.16 C303.78 535.95 305.74 540.59 307.9 545.22 C312.31 554.71 316.38 564.31 320.07 574.1 C321.56 577.91 323.27 581.59 325 585.3 C326.83 589.43 328.39 593.66 329.98 597.89 C331.58 601.97 333.42 605.92 335.33 609.87 C336.25 612.11 336.25 612.11 336.25 615.11 C325.35 615.18 314.44 615.24 303.54 615.27 C298.48 615.28 293.42 615.31 288.36 615.34 C283.48 615.37 278.6 615.39 273.71 615.4 C271.85 615.4 269.98 615.41 268.12 615.43 C265.51 615.45 262.9 615.46 260.3 615.45 C259.14 615.47 259.14 615.47 257.95 615.49 C252.74 615.46 252.74 615.46 250.33 613.8 C248.55 611.04 247.45 608.04 246.31 604.99 C245.78 603.63 245.25 602.26 244.72 600.9 C244.47 600.25 244.21 599.59 243.95 598.92 C242.52 595.26 240.88 591.69 239.25 588.11 C238.39 586.24 237.54 584.36 236.68 582.49 C236.29 581.63 235.9 580.77 235.49 579.89 C232.82 573.93 230.33 567.91 227.83 561.88 C223.67 551.82 219.41 541.82 214.94 531.89 C212.48 526.43 210.16 520.92 207.9 515.37 C205.09 508.48 202.18 501.65 199.12 494.86 C196.87 489.87 194.72 484.88 192.81 479.74 C190.01 472.24 186.65 465 183.33 457.72 C180 450.4 176.94 442.98 173.94 435.52 C172.48 431.94 170.94 428.45 169.18 425.01 C167.38 421.49 166.02 417.93 164.75 414.18 C163.19 409.6 161.44 405.2 159.45 400.8 C158 397.56 156.59 394.31 155.19 391.06 C154.91 390.43 154.64 389.79 154.36 389.14 C153.22 386.52 152.09 383.89 150.96 381.27 C147.81 373.97 144.63 366.69 141.3 359.47 C139.86 356.25 138.56 352.98 137.27 349.69 C134.32 342.24 131.18 334.91 127.75 327.68 C125.6 323.15 123.62 318.63 121.87 313.93 C119.74 308.2 117.28 302.67 114.75 297.11 C111.74 290.52 108.9 283.94 106.41 277.13 C105.16 273.88 103.76 270.72 102.33 267.55 C100.46 263.36 98.67 259.14 96.87 254.93 C96.08 253.07 95.28 251.21 94.49 249.36 C94.1 248.46 93.72 247.56 93.33 246.64 C92.39 244.45 91.45 242.25 90.5 240.06 C87.83 233.83 85.18 227.59 82.62 221.32 C81.42 218.53 80.18 215.78 78.92 213.02 C76.17 206.99 73.57 200.91 71 194.8 C70.52 193.68 70.05 192.56 69.56 191.4 C66.06 183.1 62.62 174.76 59.24 166.41 C57.02 160.92 54.68 155.51 52.25 150.11 C48.97 142.82 45.82 135.47 42.68 128.11 C38.62 118.6 34.5 109.13 30.31 99.68 C27.17 92.6 24.17 85.53 21.48 78.28 C19.55 73.35 17.36 68.54 15.19 63.71 C12.83 58.44 10.57 53.14 8.37 47.8 C7.3 45.23 6.16 42.7 5 40.18 C1.24 32.02 -2.23 23.74 -5.74 15.47 C-6.38 13.98 -7.03 12.5 -7.69 11.02 C-9.24 7.52 -10.1 4.97 -9.75 1.11 C-6.66 -0.43 -3.4 -0.02 0 0 Z " fill="#030606" transform="translate(388.75439453125,330.886474609375)"/>
<path d="M0 0 C1.19 -0.01 1.19 -0.01 2.41 -0.02 C5.04 -0.05 7.67 -0.07 10.3 -0.08 C11.2 -0.09 12.1 -0.09 13.02 -0.1 C17.77 -0.12 22.52 -0.14 27.27 -0.16 C32.19 -0.17 37.1 -0.22 42.01 -0.27 C45.78 -0.3 49.56 -0.31 53.33 -0.32 C55.14 -0.33 56.95 -0.34 58.76 -0.37 C61.29 -0.4 63.83 -0.4 66.36 -0.39 C67.11 -0.41 67.86 -0.42 68.63 -0.44 C72.42 -0.39 73.97 -0.13 76.73 2.56 C78.36 5.28 79.5 7.83 80.56 10.82 C82.67 16.55 84.93 22.19 87.31 27.82 C87.66 28.65 88.01 29.48 88.37 30.33 C90.1 34.42 91.87 38.48 93.75 42.51 C96.72 48.92 99.31 55.49 101.92 62.05 C104.11 67.48 106.52 72.7 109.18 77.91 C110.67 80.93 111.84 83.97 113 87.13 C114.24 90.52 115.3 93.18 117.31 96.19 C117.75 97.82 118.19 99.44 118.63 101.07 C119.42 103.54 120.45 105.82 121.54 108.17 C124.35 114.28 127.09 120.42 129.81 126.57 C130.29 127.67 130.78 128.76 131.28 129.9 C134.13 136.39 136.8 142.89 139.26 149.54 C140.68 153.13 142.42 156.51 144.19 159.94 C145.5 162.57 146.51 165.24 147.5 168.01 C150.33 175.68 153.71 183.12 157.13 190.54 C158.26 193.07 159.3 195.62 160.31 198.19 C162.89 204.75 165.75 211.19 169 217.44 C170.31 220.19 170.31 220.19 171.18 223.44 C172.12 226.56 173.14 228.96 174.62 231.82 C177.14 236.69 179.11 241.68 181 246.82 C182.28 250.11 183.68 253.32 185.13 256.54 C186.51 259.65 187.85 262.78 189.18 265.92 C189.69 267.11 190.21 268.31 190.73 269.55 C191.52 271.4 192.31 273.26 193.1 275.12 C195.73 281.31 198.37 287.44 201.45 293.41 C202.95 296.52 204.09 299.76 205.25 303.01 C207.28 308.54 209.46 313.94 211.96 319.28 C216.01 328 219.83 336.83 223.35 345.77 C226.34 353.33 229.54 360.77 232.93 368.15 C234.58 371.78 236.2 375.42 237.81 379.07 C238.08 379.68 238.35 380.29 238.63 380.92 C240.43 385 242.05 389.12 243.62 393.29 C246.39 400.56 249.58 407.62 252.81 414.69 C256.51 422.77 260.03 430.87 263.17 439.19 C264.81 443.5 266.58 447.76 268.37 452.01 C268.86 453.18 268.86 453.18 269.36 454.37 C271.23 458.8 273.22 463.13 275.43 467.4 C276.63 469.85 277.54 472.38 278.47 474.94 C279.87 478.69 281.44 482.36 282.99 486.04 C283.86 488.12 284.72 490.2 285.57 492.28 C287.49 496.99 289.47 501.61 291.81 506.13 C294.25 510.9 296.15 515.8 298 520.82 C299.32 524.21 300.77 527.5 302.25 530.82 C304.36 535.56 306.33 540.37 308.31 545.18 C310.18 549.67 312.2 554.02 314.41 558.36 C315.69 560.97 316.69 563.65 317.68 566.38 C319.39 570.92 321.24 575.31 323.31 579.69 C325.86 585.1 328.05 590.58 330.15 596.17 C331.99 600.97 333.98 605.73 336.42 610.25 C337.31 612.19 337.31 612.19 337.31 615.19 C326.44 615.36 315.58 615.48 304.71 615.56 C299.67 615.59 294.62 615.64 289.57 615.72 C284.71 615.8 279.84 615.84 274.97 615.86 C273.11 615.87 271.25 615.9 269.39 615.93 C266.79 615.98 264.19 615.99 261.59 615.99 C260.82 616.01 260.05 616.04 259.26 616.06 C256.23 616.02 253.97 615.82 251.72 613.68 C249.05 610.05 247.62 606.52 246.31 602.19 C244.58 598.14 242.7 594.15 240.85 590.15 C238.73 585.52 236.78 580.87 234.98 576.11 C231.9 567.98 228.35 560.07 224.81 552.13 C223.51 549.2 222.2 546.27 220.9 543.35 C220.43 542.29 220.43 542.29 219.95 541.2 C217.72 536.16 215.57 531.08 213.47 525.98 C211.48 521.21 209.39 516.49 207.31 511.76 C204.18 504.6 201.13 497.45 198.44 490.11 C196.24 484.44 193.65 478.93 191.13 473.4 C187.33 465.07 183.68 456.78 180.48 448.2 C178.78 443.84 176.78 439.62 174.78 435.38 C172.91 431.33 171.22 427.22 169.52 423.09 C168.35 420.28 167.09 417.52 165.81 414.76 C164.06 410.97 162.51 407.16 161.06 403.25 C158.26 395.93 155.07 388.81 151.81 381.69 C148.15 373.7 144.68 365.7 141.58 357.47 C139.27 351.51 136.68 345.67 134.12 339.82 C133.55 338.5 132.98 337.19 132.4 335.87 C131.25 333.23 130.1 330.59 128.95 327.95 C127.46 324.53 125.97 321.11 124.48 317.69 C124.06 316.7 123.63 315.71 123.18 314.7 C122.77 313.75 122.36 312.8 121.93 311.82 C119.74 306.77 117.54 301.71 115.31 296.68 C112.2 289.64 109.22 282.58 106.55 275.35 C104.29 269.6 101.69 264.01 99.13 258.4 C95.32 250.05 91.67 241.74 88.49 233.13 C87.24 230.03 85.79 227.1 84.25 224.13 C81.73 219.26 80 214.41 78.37 209.19 C76.89 205.01 74.86 201.19 72.81 197.26 C70.77 193.1 69.21 188.82 67.59 184.49 C65.84 179.98 63.78 175.63 61.72 171.25 C60.11 167.76 58.69 164.21 57.3 160.63 C56.26 158.07 55.11 155.57 53.93 153.07 C51.47 147.74 49.42 142.29 47.45 136.76 C46.07 132.95 44.42 129.64 42.31 126.19 C41.56 124.35 40.86 122.5 40.18 120.63 C37.96 114.7 35.44 108.95 32.81 103.19 C29.76 96.53 26.97 89.86 24.42 82.99 C23.36 80.31 22.15 77.81 20.81 75.26 C18.79 71.37 17.29 67.46 15.87 63.32 C13.93 57.67 11.55 52.51 8.79 47.22 C6.68 42.9 5.03 38.43 3.39 33.91 C2.36 31.04 2.36 31.04 0.31 28.19 C-0.69 25.19 -0.69 25.19 -1.69 22.19 C-3.32 18.33 -5.07 14.52 -6.84 10.72 C-7.2 9.93 -7.57 9.13 -7.94 8.32 C-8.28 7.6 -8.61 6.88 -8.96 6.14 C-9.69 4.19 -9.69 4.19 -9.69 1.19 C-6.62 -0.35 -3.38 0.02 0 0 Z " fill="#030606" transform="translate(810.69091796875,330.80712890625)"/>
<path d="M0 0 C3.04 1.52 3.23 3.8 4.38 6.94 C7.62 15.72 11.15 24.39 14.7 33.06 C19.6 45.01 24.39 57 29.06 69.04 C31.1 74.28 33.18 79.49 35.47 84.63 C35.85 85.49 36.22 86.34 36.61 87.22 C37.3 88.75 38 90.27 38.72 91.79 C41.33 97.65 42.35 103.97 40.27 110.19 C39.66 111.55 39.02 112.9 38.35 114.23 C36.14 118.77 34.34 123.47 32.46 128.15 C32.17 128.86 31.88 129.57 31.59 130.3 C31.33 130.94 31.07 131.58 30.81 132.24 C30 134 30 134 28 137 C27.32 138.99 26.65 141 26 143 C25.08 145.2 24.14 147.38 23.19 149.56 C20.67 155.34 18.38 161.17 16.14 167.06 C14.9 170.25 13.53 173.35 12.11 176.46 C11.18 178.58 10.32 180.7 9.49 182.85 C9.22 183.53 8.96 184.22 8.68 184.92 C8.15 186.29 7.62 187.66 7.11 189.04 C5.22 193.89 5.22 193.89 3 195 C0.44 195.09 -2.1 195.13 -4.66 195.11 C-5.85 195.11 -5.85 195.11 -7.06 195.11 C-9.68 195.11 -12.3 195.11 -14.91 195.1 C-16.73 195.1 -18.54 195.09 -20.35 195.09 C-25.13 195.09 -29.91 195.08 -34.69 195.07 C-39.56 195.06 -44.43 195.05 -49.3 195.05 C-58.87 195.04 -68.43 195.02 -78 195 C-79.06 193.19 -79.06 193.19 -80 191 C-79.06 188 -79.06 188 -77.44 184.56 C-76.86 183.31 -76.29 182.05 -75.72 180.79 C-75.43 180.16 -75.14 179.53 -74.84 178.87 C-73.59 176.08 -72.51 173.23 -71.44 170.38 C-69.09 164.19 -66.57 158.09 -64 152 C-63.21 150.08 -62.42 148.17 -61.62 146.25 C-59.94 142.18 -58.19 138.15 -56.41 134.12 C-54.02 128.73 -51.7 123.34 -49.62 117.81 C-45.82 107.71 -41.43 97.84 -37.11 87.96 C-35.8 84.94 -34.59 81.95 -33.62 78.81 C-31.09 71.04 -27.71 63.59 -24.4 56.11 C-24.11 55.44 -23.81 54.76 -23.5 54.06 C-23.2 53.38 -22.9 52.7 -22.59 52 C-20.28 46.74 -18.21 41.4 -16.18 36.01 C-14.69 32.21 -12.98 28.52 -11.25 24.82 C-9.87 21.71 -8.68 18.56 -7.5 15.38 C-5.45 9.94 -3.01 4.96 0 0 Z " fill="#030606" transform="translate(313,497)"/>
<path d="M0 0 C0.76 -0 1.51 -0.01 2.29 -0.01 C4.79 -0.02 7.3 -0.01 9.8 -0.01 C11.53 -0.01 13.27 -0.01 15.01 -0.01 C18.65 -0.02 22.29 -0.01 25.93 -0 C30.6 0.01 35.28 0 39.95 -0.01 C43.53 -0.02 47.12 -0.01 50.71 -0.01 C52.43 -0.01 54.15 -0.01 55.88 -0.01 C58.28 -0.02 60.69 -0.01 63.09 0 C63.81 -0 64.52 -0.01 65.26 -0.01 C68.92 0.02 70.41 0.17 73.55 2.26 C71.01 8.37 68.46 14.47 65.86 20.56 C61.27 31.31 56.77 42.06 52.75 53.05 C51.19 57.21 49.42 61.23 47.55 65.26 C45.31 70.17 43.21 75.07 41.36 80.13 C40.56 82.21 39.68 84.23 38.76 86.25 C36.24 91.88 33.95 97.6 31.67 103.32 C31.23 104.42 30.8 105.51 30.34 106.64 C27.36 114.13 24.5 121.65 21.8 129.25 C19.77 134.12 19.77 134.12 17.55 136.26 C14.79 136.64 12.43 136.77 9.68 136.71 C8.48 136.71 8.48 136.71 7.25 136.71 C4.61 136.71 1.96 136.68 -0.68 136.65 C-2.52 136.64 -4.35 136.64 -6.19 136.63 C-11.01 136.62 -15.84 136.58 -20.67 136.53 C-25.6 136.49 -30.52 136.47 -35.45 136.45 C-45.12 136.41 -54.79 136.34 -64.45 136.26 C-63.83 132.18 -63.02 128.91 -61.2 125.2 C-58.29 119 -55.87 112.66 -53.45 106.26 C-50.02 97.25 -46.58 88.3 -42.5 79.56 C-41.28 76.88 -40.26 74.16 -39.25 71.39 C-36.97 65.3 -34.37 59.33 -31.75 53.39 C-31.45 52.71 -31.16 52.04 -30.85 51.34 C-30.28 50.06 -29.7 48.77 -29.13 47.48 C-27.32 43.4 -25.68 39.28 -24.09 35.11 C-21.45 28.21 -18.68 21.38 -15.83 14.57 C-15.11 12.82 -15.11 12.82 -14.38 11.04 C-13.92 9.93 -13.45 8.83 -12.98 7.68 C-12.56 6.69 -12.15 5.69 -11.72 4.67 C-9.03 -0.43 -5.12 -0.03 0 0 Z " fill="#030606" transform="translate(195.453125,809.7412109375)"/>
<path d="M0 0 C1.21 -0.03 1.21 -0.03 2.45 -0.06 C3.75 -0.07 3.75 -0.07 5.08 -0.08 C5.98 -0.1 6.87 -0.11 7.8 -0.12 C9.69 -0.14 11.59 -0.15 13.48 -0.16 C16.38 -0.18 19.28 -0.24 22.18 -0.3 C24.02 -0.32 25.86 -0.33 27.71 -0.33 C29.01 -0.37 29.01 -0.37 30.33 -0.41 C32.68 -0.39 34.69 -0.3 36.96 0.32 C40.18 3.87 41.81 7.94 43.58 12.36 C44.04 13.5 44.5 14.64 44.98 15.81 C45.45 16.99 45.91 18.17 46.4 19.38 C46.86 20.54 47.33 21.69 47.8 22.88 C50.57 29.75 53.25 36.65 55.87 43.58 C56.88 46.27 56.88 46.27 58.11 48.49 C59.57 51.63 58.72 54.01 57.96 57.32 C56.69 60.75 55.21 64.06 53.71 67.38 C50.51 74.65 47.59 81.88 45.01 89.38 C43.55 93.47 41.79 97.39 39.96 101.32 C37.71 106.26 35.6 111.2 33.74 116.29 C32.63 119.18 31.33 121.96 30.02 124.76 C28.46 128.53 27.25 132.45 25.96 136.32 C-2.75 136.32 -31.46 136.32 -61.04 136.32 C-60.33 132.77 -59.75 130.33 -58.37 127.13 C-57.87 125.97 -57.87 125.97 -57.36 124.79 C-57.01 123.97 -56.66 123.16 -56.29 122.32 C-53.03 114.71 -49.97 107.06 -47.04 99.32 C-45.06 94.2 -42.99 89.17 -40.67 84.2 C-38.25 78.97 -36.26 73.63 -34.27 68.23 C-32.5 63.44 -30.5 58.81 -28.33 54.18 C-27.02 51.27 -25.86 48.34 -24.74 45.35 C-22.08 38.38 -19.3 31.47 -16.48 24.57 C-16.01 23.42 -15.54 22.26 -15.06 21.08 C-13.73 17.82 -12.39 14.57 -11.04 11.32 C-10.67 10.41 -10.3 9.5 -9.92 8.56 C-9.58 7.76 -9.24 6.95 -8.89 6.12 C-8.6 5.43 -8.31 4.73 -8.02 4.02 C-6.07 0.64 -3.61 0.07 0 0 Z " fill="#030606" transform="translate(405.040771484375,809.677734375)"/>
</svg>
